<?xml version="1.0" encoding="utf-8"?>
<!-- Generator: Adobe Illustrator 27.5.0, SVG Export Plug-In . SVG Version: 6.00 Build 0)  -->
<svg version="1.1" xmlns="http://www.w3.org/2000/svg" xmlns:xlink="http://www.w3.org/1999/xlink" x="0px" y="0px"
	 viewBox="0 0 1040 500" style="enable-background:new 0 0 1040 500;" xml:space="preserve">
<g id="BACKGROUND">
	<rect x="0.002" y="0.125" style="fill:#F0FFDE;" width="1040" height="499.87"/>
	<g>
		<path style="fill:#FFFFFF;" d="M537.091,452.58c0,0,35.98-12.091,39.016-12.243c0,0,8.469-23.895,23.714-26.424
			c17.785-3.948,27.462,8.874,27.462,8.874s0.228-7.956,8.917-11.349c8.69-3.394,14.616,1.32,14.616,1.32
			s1.709-34.106,31.664-42.606c29.955-8.5,49.161,19.241,49.161,19.241s3.107-16.674,21.322-21.78
			c18.215-5.105,25.105,4.922,25.105,4.922s1.606-45.242,42.591-55.564c40.985-10.321,60.338,29.75,60.338,29.75
			s6.681-15.137,26.424-15.137c19.743,0,26.425,22.423,26.425,22.423s4.299-9.107,14.013-9.107c9.714,0,13.964,8.5,13.964,8.5
			s17.316-68.001,78.177-72.251v157.902L537.091,452.58z"/>
		<g>
			<path style="fill:#FFFFFF;" d="M620.744,92.662h243.461c-18.334-11.429-40.066-6.256-40.066-6.256s-4.355-10.772-13.746-11.364
				c-9.4-0.583-12.481,1.965-12.481,1.965c-4.691-15.655-17.607-3.821-17.607-3.821s4.691-17.607-6.171-24.065
				c-10.862-6.458-22.307,0-22.307,0s-10.566-20.262-34.64-14.091c-7.954,2.037-13.575,5.545-17.523,9.34
				c-8.005,7.658-9.188,16.466-9.188,16.466c-12.916-0.617-11.75,9.121-11.75,9.121s-5.283-13.499-22.307-7.921
				c-17.024,5.571-13.743,25.771-13.743,25.771C630.936,84.58,620.744,92.662,620.744,92.662z"/>
		</g>
		<g>
			<path style="fill:#FFFFFF;" d="M658.21,219.129H521.556c10.291-6.415,22.489-3.512,22.489-3.512s2.444-6.046,7.716-6.378
				c5.276-0.327,7.005,1.103,7.005,1.103c2.633-8.787,9.883-2.145,9.883-2.145s-2.633-9.883,3.464-13.508
				c6.097-3.625,12.521,0,12.521,0s5.931-11.373,19.443-7.909c4.465,1.144,7.62,3.112,9.836,5.243
				c4.493,4.299,5.157,9.242,5.157,9.242c7.25-0.346,6.595,5.119,6.595,5.119s2.965-7.577,12.521-4.446
				c9.556,3.127,7.714,14.465,7.714,14.465C652.489,214.592,658.21,219.129,658.21,219.129z"/>
		</g>
	</g>
</g>
<g id="OBJECTS">
	<g>
		<g>
			<path style="opacity:0.1;fill:#159356;" d="M430.952,443.825c-1.1,22.12,20.13,40.76,51.56,56.17H16.002V6.735h257.33
				c43.42,35.07,142.07,117.7,229.92,212.34C619.972,344.805,434.942,362.845,430.952,443.825z"/>
			<path style="fill:#FFFFFF;" d="M414.95,437.22c-1.257,25.38,26.878,46.18,66.089,62.78H0V0.13h257.33
				c43.42,35.07,142.076,117.7,229.925,212.34C603.969,338.2,418.945,356.24,414.95,437.22z"/>
		</g>
		<path style="fill:#F49638;" d="M142.071,394.904H57.784c-7.525,0-13.626-6.1-13.626-13.625l0,0c0-7.525,6.1-13.625,13.626-13.625
			h84.287c7.525,0,13.625,6.1,13.625,13.625l0,0C155.696,388.804,149.596,394.904,142.071,394.904z"/>
	</g>
	<g>
		<g>
			<g>
				<path style="fill:#F0FFDE;" d="M909.695,197.513c-0.015-0.729-0.044-1.459-0.088-2.189c-0.044-1.27-0.118-2.525-0.221-3.766
					c-0.044-0.73-0.118-1.46-0.191-2.189c-0.117-1.27-0.265-2.525-0.441-3.765c-0.103-0.744-0.221-1.474-0.353-2.189
					c-0.221-1.284-0.471-2.539-0.765-3.78c-0.177-0.744-0.368-1.474-0.574-2.189c-0.368-1.299-0.779-2.554-1.264-3.766
					c-0.265-0.744-0.574-1.474-0.897-2.189c-0.588-1.313-1.264-2.569-2.014-3.765c-0.456-0.759-0.956-1.489-1.485-2.189
					c-1-1.357-2.132-2.613-3.397-3.78c-0.838-0.774-1.735-1.503-2.706-2.189c-1.706-1.216-3.617-2.278-5.739-3.18l-2.18-67.043
					l-2.131,65.53c-4.298-1.223-9.325-1.889-15.213-1.889v6.632v2.206v3.808v2.206v3.794v2.206v3.794v2.206v3.808v2.206v3.794v2.206
					v3.794v2.206v3.809v2.206v3.794v2.206v3.794v2.206v3.808v2.206v3.794v2.206v3.794v2.206v3.808v2.206v3.794v2.206v3.794v2.206
					v3.808v2.206v3.794v2.206v3.794v2.206v3.808v2.206v3.794v2.206v3.794v2.206v3.808v2.206v3.794v2.206v3.794v2.206v3.808v2.206
					v3.794v2.206v3.794v2.206v3.808v2.206v3.794v2.206v3.794v2.206v3.808v2.206v3.794v2.206v3.794v2.206v3.808v2.206v3.794v2.206
					v3.794v2.206v3.809v2.206v3.794v2.206v3.794v2.206v3.808v2.206v11.882h39.733c0,0,0-4.377,0-11.882c0-0.609,0-1.231,0-1.88
					v-0.325v-3.808v-2.206v-3.794v-2.206v-3.794v-2.206v-3.809v-2.206v-3.794v-2.206v-3.794v-2.206v-3.808v-2.206v-3.794v-2.206
					v-3.794v-2.206v-3.808v-2.206v-3.794v-2.206v-3.794v-2.206v-3.808v-2.206v-3.794v-2.206v-3.794v-2.206v-3.808v-2.206v-3.794
					v-2.206v-3.794v-2.206v-3.808v-2.206v-3.794v-2.206v-3.794v-2.206v-3.808v-2.206v-3.794v-2.206v-3.794v-2.206v-3.808v-2.206
					v-3.794v-2.206v-3.794v-2.206v-3.808v-2.206v-3.794v-2.206v-3.794v-2.206v-3.808v-2.206v-3.794v-2.206v-3.794v-0.514v-0.38
					c0-0.569,0-1.124-0.015-1.679C909.754,200.024,909.724,198.768,909.695,197.513z"/>
				<g>
					<polygon style="fill:#F0FFDE;" points="674.478,256.31 668.639,256.31 668.639,226.473 666.515,226.473 666.515,256.31 
						649.527,256.31 649.527,262.797 641.564,262.797 641.564,428.559 656.628,428.559 669.81,428.559 684.034,428.559 
						684.034,262.797 674.478,262.797 					"/>
					<polygon style="fill:#F0FFDE;" points="731.883,228.501 726.865,228.501 726.865,218.059 715.672,218.059 714.909,189.303 
						714.147,218.059 702.953,218.059 702.953,228.501 697.935,228.501 697.935,244.77 688.686,244.77 688.686,421.076 
						741.133,421.076 741.133,244.77 731.883,244.77 					"/>
					<polygon style="fill:#F0FFDE;" points="805.318,247.231 797.261,247.231 797.261,216.737 761.52,216.737 761.52,247.231 
						753.462,247.231 753.462,263.543 745.968,263.543 745.968,413.337 759.103,413.337 771.467,413.337 787.313,413.337 
						799.677,413.337 812.813,413.337 812.813,263.543 805.318,263.543 					"/>
					<polygon style="fill:#F0FFDE;" points="819.915,203.903 819.915,419.121 833.434,419.121 849.546,419.121 863.065,419.121 
						863.065,203.903 841.49,164.176 					"/>
					<polygon style="fill:#F0FFDE;" points="994.741,264.924 994.741,239.732 973.603,239.732 973.603,212.947 971.541,212.947 
						971.541,239.732 971.541,252.702 956.074,244.553 956.074,420.609 972.575,420.609 985.329,420.609 1001.829,420.609 
						1001.829,268.659 					"/>
					<path style="fill:#F0FFDE;" d="M932.174,89.346l-2.18,67.043c-2.122,0.902-4.032,1.964-5.739,3.18
						c-0.971,0.686-1.867,1.416-2.706,2.189c-1.265,1.167-2.397,2.423-3.397,3.78c-0.529,0.7-1.029,1.43-1.485,2.189
						c-0.75,1.197-1.426,2.452-2.014,3.765c-0.323,0.715-0.632,1.445-0.897,2.189c-0.485,1.212-0.897,2.466-1.264,3.766
						c-0.206,0.715-0.397,1.445-0.574,2.189c-0.294,1.24-0.544,2.495-0.765,3.78c-0.132,0.715-0.25,1.445-0.353,2.189
						c-0.176,1.24-0.323,2.495-0.441,3.765c-0.073,0.729-0.147,1.459-0.191,2.189c-0.103,1.241-0.177,2.496-0.221,3.766
						c-0.044,0.73-0.074,1.459-0.088,2.189c-0.029,1.255-0.059,2.51-0.059,3.78c-0.015,0.555-0.015,1.109-0.015,1.679v0.38v0.514
						v3.794v2.206v3.794v2.206v3.808v2.206v3.794v2.206v3.794v2.206v3.808v2.206v3.794v2.206v3.794v2.206v3.808v2.206v3.794v2.206
						v3.794v2.206v3.808v2.206v3.794v2.206v3.794v2.206v3.808v2.206v3.794v2.206v3.794v2.206v3.808v2.206v3.794v2.206v3.794v2.206
						v3.808v2.206v3.794v2.206v3.794v2.206v3.808v2.206v3.794v2.206v3.794v2.206v3.808v2.206v3.794v2.206v3.794v2.206v3.809v2.206
						v3.794v2.206v3.794v2.206v3.808v0.325c0,0.649,0,1.272,0,1.88c0,7.505,0,11.882,0,11.882h39.733v-11.882v-2.206v-3.808v-2.206
						v-3.794v-2.206v-3.794v-2.206v-3.809v-2.206v-3.794v-2.206v-3.794v-2.206v-3.808v-2.206v-3.794v-2.206v-3.794v-2.206v-3.808
						v-2.206v-3.794v-2.206v-3.794v-2.206v-3.808v-2.206v-3.794v-2.206v-3.794v-2.206v-3.808v-2.206v-3.794v-2.206v-3.794v-2.206
						v-3.808v-2.206v-3.794v-2.206v-3.794v-2.206v-3.808v-2.206v-3.794v-2.206v-3.794v-2.206v-3.808v-2.206v-3.794v-2.206v-3.794
						v-2.206v-3.808v-2.206v-3.794v-2.206v-3.794v-2.206v-3.808v-2.206v-3.794v-2.206v-3.794v-2.206v-3.809v-2.206v-3.794v-2.206
						v-3.794v-2.206v-3.808v-2.206v-3.794v-2.206v-3.794v-2.206v-3.808v-2.206v-6.632c-5.888,0-10.915,0.666-15.213,1.889
						L932.174,89.346z"/>
				</g>
			</g>
			<path style="fill:#F0FFDE;" d="M921.136,158.674h-11.367h-11.367c0,0,9.423,7.307,11.367,21.164
				C911.713,165.981,921.136,158.674,921.136,158.674z"/>
		</g>
		<g>
			<g>
				<path style="fill:#F0FFDE;" d="M674.478,256.174h-5.84v-29.838h-2.124v29.838h-16.988v6.486h-7.963v165.763h15.063h13.182
					h14.224V262.66h-9.556V256.174z M650.917,411.847h-5.106v-10.162h5.106V411.847z M650.917,396.928h-5.106v-10.162h5.106V396.928
					z M650.917,382.01h-5.106v-10.162h5.106V382.01z M650.917,367.091h-5.106v-10.162h5.106V367.091z M650.917,352.172h-5.106
					V342.01h5.106V352.172z M650.917,337.254h-5.106v-10.162h5.106V337.254z M650.917,322.335h-5.106v-10.162h5.106V322.335z
					 M650.917,307.416h-5.106v-10.162h5.106V307.416z M650.917,292.497h-5.106v-10.162h5.106V292.497z M650.917,277.579h-5.106
					v-10.162h5.106V277.579z M660.363,411.847h-5.106v-10.162h5.106V411.847z M660.363,396.928h-5.106v-10.162h5.106V396.928z
					 M660.363,382.01h-5.106v-10.162h5.106V382.01z M660.363,367.091h-5.106v-10.162h5.106V367.091z M660.363,352.172h-5.106V342.01
					h5.106V352.172z M660.363,337.254h-5.106v-10.162h5.106V337.254z M660.363,322.335h-5.106v-10.162h5.106V322.335z
					 M660.363,307.416h-5.106v-10.162h5.106V307.416z M660.363,292.497h-5.106v-10.162h5.106V292.497z M660.363,277.579h-5.106
					v-10.162h5.106V277.579z M669.81,411.847h-5.106v-10.162h5.106V411.847z M669.81,396.928h-5.106v-10.162h5.106V396.928z
					 M669.81,382.01h-5.106v-10.162h5.106V382.01z M669.81,367.091h-5.106v-10.162h5.106V367.091z M669.81,352.172h-5.106V342.01
					h5.106V352.172z M669.81,337.254h-5.106v-10.162h5.106V337.254z M669.81,322.335h-5.106v-10.162h5.106V322.335z M669.81,307.416
					h-5.106v-10.162h5.106V307.416z M669.81,292.497h-5.106v-10.162h5.106V292.497z M669.81,277.579h-5.106v-10.162h5.106V277.579z
					 M679.256,411.847h-5.106v-10.162h5.106V411.847z M679.256,396.928h-5.106v-10.162h5.106V396.928z M679.256,382.01h-5.106
					v-10.162h5.106V382.01z M679.256,367.091h-5.106v-10.162h5.106V367.091z M679.256,352.172h-5.106V342.01h5.106V352.172z
					 M679.256,337.254h-5.106v-10.162h5.106V337.254z M679.256,322.335h-5.106v-10.162h5.106V322.335z M679.256,307.416h-5.106
					v-10.162h5.106V307.416z M679.256,292.497h-5.106v-10.162h5.106V292.497z M679.256,267.417v10.162h-5.106v-10.162H679.256z"/>
				<path style="fill:#F0FFDE;" d="M731.883,228.364h-5.018v-10.442h-11.194l-0.762-28.755l-0.762,28.755h-11.194v10.442h-5.018
					v16.27h-9.249v176.306h52.446V244.633h-9.249V228.364z M727.73,231.743v10.448h-3.905v-10.448H727.73z M720.339,231.743v10.448
					h-3.905v-10.448H720.339z M712.948,231.743v10.448h-3.905v-10.448H712.948z M701.652,231.743h3.905v10.448h-3.905V231.743z
					 M735.888,401.403h-42.831v-4.478h42.831V401.403z M735.888,393h-42.831v-4.478h42.831V393z M735.888,384.598h-42.831v-4.478
					h42.831V384.598z M735.888,376.195h-42.831v-4.478h42.831V376.195z M735.888,367.793h-42.831v-4.478h42.831V367.793z
					 M735.888,359.39h-42.831v-4.478h42.831V359.39z M735.888,350.987h-42.831v-4.478h42.831V350.987z M735.888,342.145h-42.831
					v-4.478h42.831V342.145z M735.888,333.303h-42.831v-4.478h42.831V333.303z M735.888,324.461h-42.831v-4.478h42.831V324.461z
					 M735.888,315.619h-42.831v-4.478h42.831V315.619z M735.888,306.777h-42.831v-4.478h42.831V306.777z M735.888,297.935h-42.831
					v-4.478h42.831V297.935z M735.888,289.093h-42.831v-4.478h42.831V289.093z M735.888,280.251h-42.831v-4.478h42.831V280.251z
					 M735.888,271.409h-42.831v-4.478h42.831V271.409z M735.888,262.567h-42.831v-4.478h42.831V262.567z M735.888,249.247v4.478
					h-42.831v-4.478H735.888z"/>
				<path style="fill:#F0FFDE;" d="M805.318,247.095h-8.057V216.6H761.52v30.494h-8.057v16.312h-7.495v149.794h13.136h12.364h15.846
					h12.364h13.136V263.406h-7.495V247.095z M755.828,398.486h-5.177V386.78h5.177V398.486z M755.828,382.079h-5.177v-11.706h5.177
					V382.079z M755.828,362.619h-5.177v-11.706h5.177V362.619z M755.828,345.89h-5.177v-11.706h5.177V345.89z M755.828,329.161
					h-5.177v-11.706h5.177V329.161z M755.828,312.432h-5.177v-11.706h5.177V312.432z M755.828,295.703h-5.177v-11.706h5.177V295.703
					z M755.828,279.296h-5.177v-11.706h5.177V279.296z M758.795,260.664h-2.968V249.26h2.968V260.664z M777.906,220.7h2.967v39.964
					h-2.967V220.7z M764.632,398.486h-5.177V386.78h5.177V398.486z M764.632,382.079h-5.177v-11.706h5.177V382.079z
					 M764.632,362.619h-5.177v-11.706h5.177V362.619z M764.632,345.89h-5.177v-11.706h5.177V345.89z M764.632,329.161h-5.177
					v-11.706h5.177V329.161z M764.632,312.432h-5.177v-11.706h5.177V312.432z M764.632,295.703h-5.177v-11.706h5.177V295.703z
					 M764.632,279.296h-5.177v-11.706h5.177V279.296z M768.253,260.664h-2.967V220.7h2.967V260.664z M773.437,398.486h-5.177V386.78
					h5.177V398.486z M773.437,382.079h-5.177v-11.706h5.177V382.079z M773.437,362.619h-5.177v-11.706h5.177V362.619z
					 M773.437,345.89h-5.177v-11.706h5.177V345.89z M773.437,329.161h-5.177v-11.706h5.177V329.161z M773.437,312.432h-5.177
					v-11.706h5.177V312.432z M773.437,295.703h-5.177v-11.706h5.177V295.703z M773.437,279.296h-5.177v-11.706h5.177V279.296z
					 M774.563,260.664h-2.967V220.7h2.967V260.664z M782.242,398.486h-5.177V386.78h5.177V398.486z M782.242,382.079h-5.177v-11.706
					h5.177V382.079z M782.242,362.619h-5.177v-11.706h5.177V362.619z M782.242,345.89h-5.177v-11.706h5.177V345.89z
					 M782.242,329.161h-5.177v-11.706h5.177V329.161z M782.242,312.432h-5.177v-11.706h5.177V312.432z M782.242,295.703h-5.177
					v-11.706h5.177V295.703z M782.242,279.296h-5.177v-11.706h5.177V279.296z M784.217,220.7h2.967v39.964h-2.967V220.7z
					 M791.046,398.486h-5.177V386.78h5.177V398.486z M791.046,382.079h-5.177v-11.706h5.177V382.079z M791.046,362.619h-5.177
					v-11.706h5.177V362.619z M791.046,345.89h-5.177v-11.706h5.177V345.89z M791.046,329.161h-5.177v-11.706h5.177V329.161z
					 M791.046,312.432h-5.177v-11.706h5.177V312.432z M791.046,295.703h-5.177v-11.706h5.177V295.703z M791.046,279.296h-5.177
					v-11.706h5.177V279.296z M793.495,260.664h-2.967V220.7h2.967V260.664z M799.85,398.486h-5.177V386.78h5.177V398.486z
					 M799.85,382.079h-5.177v-11.706h5.177V382.079z M799.85,362.619h-5.177v-11.706h5.177V362.619z M799.85,345.89h-5.177v-11.706
					h5.177V345.89z M799.85,329.161h-5.177v-11.706h5.177V329.161z M799.85,312.432h-5.177v-11.706h5.177V312.432z M799.85,295.703
					h-5.177v-11.706h5.177V295.703z M799.85,279.296h-5.177v-11.706h5.177V279.296z M802.802,260.664h-2.967V249.26h2.967V260.664z
					 M808.655,398.486h-5.177V386.78h5.177V398.486z M808.655,382.079h-5.177v-11.706h5.177V382.079z M808.655,362.619h-5.177
					v-11.706h5.177V362.619z M808.655,345.89h-5.177v-11.706h5.177V345.89z M808.655,329.161h-5.177v-11.706h5.177V329.161z
					 M808.655,312.432h-5.177v-11.706h5.177V312.432z M808.655,295.703h-5.177v-11.706h5.177V295.703z M808.655,267.589v11.706
					h-5.177v-11.706H808.655z"/>
				<path style="fill:#F0FFDE;" d="M819.915,203.766v215.218h13.518h16.113h13.518V203.766L841.49,164.04L819.915,203.766z
					 M829.731,389.358h-4.388V217.376h4.388V389.358z M839.033,399.357h-4.388v-190.87h4.388V399.357z M853.249,217.376h4.388
					v171.982h-4.388V217.376z M843.947,208.488h4.388v190.87h-4.388V208.488z"/>
				<path style="fill:#F0FFDE;" d="M1001.829,268.522l-7.089-3.735v-25.192h-21.138v-26.785h-2.062v26.785v12.969l-15.466-8.148
					v176.055h16.5h12.754h16.5V268.522z M965.87,407.616h-4.64v-18.343h4.64V407.616z M965.87,384.266h-4.64v-18.343h4.64V384.266z
					 M965.87,360.916h-4.64v-18.343h4.64V360.916z M965.87,337.566h-4.64v-18.343h4.64V337.566z M965.87,314.216h-4.64v-18.343h4.64
					V314.216z M965.87,290.866h-4.64v-18.343h4.64V290.866z M975.923,407.616h-4.64v-18.343h4.64V407.616z M975.923,384.266h-4.64
					v-18.343h4.64V384.266z M975.923,360.916h-4.64v-18.343h4.64V360.916z M975.923,337.566h-4.64v-18.343h4.64V337.566z
					 M975.923,314.216h-4.64v-18.343h4.64V314.216z M975.923,290.866h-4.64v-18.343h4.64V290.866z M985.976,407.616h-4.64v-18.343
					h4.64V407.616z M985.976,384.266h-4.64v-18.343h4.64V384.266z M985.976,360.916h-4.64v-18.343h4.64V360.916z M985.976,337.566
					h-4.64v-18.343h4.64V337.566z M985.976,314.216h-4.64v-18.343h4.64V314.216z M985.976,290.866h-4.64v-18.343h4.64V290.866z
					 M996.029,407.616h-4.64v-18.343h4.64V407.616z M996.029,384.266h-4.64v-18.343h4.64V384.266z M996.029,360.916h-4.64v-18.343
					h4.64V360.916z M996.029,337.566h-4.64v-18.343h4.64V337.566z M996.029,314.216h-4.64v-18.343h4.64V314.216z M996.029,290.866
					h-4.64v-18.343h4.64V290.866z"/>
				<g>
					<g>
						<path style="fill:#F0FFDE;" d="M872.976,155.852c8.631,0.365,15.557,2.371,20.625,5.981c0.841,0.595,1.652,1.251,2.409,1.949
							c1.132,1.045,2.149,2.176,3.045,3.391c0.489,0.647,0.93,1.296,1.34,1.979c0.691,1.102,1.304,2.248,1.827,3.415
							c0.344,0.761,0.6,1.385,0.806,1.963l0.019,0.054l0.021,0.053c0.418,1.043,0.798,2.178,1.169,3.487
							c0.191,0.662,0.372,1.352,0.538,2.053c0.267,1.127,0.505,2.304,0.734,3.636c0.124,0.672,0.236,1.364,0.333,2.069
							c0.169,1.191,0.312,2.41,0.428,3.658c0.069,0.687,0.139,1.374,0.185,2.126c0.099,1.186,0.17,2.405,0.212,3.625l0.001,0.037
							l0.002,0.037c0.042,0.69,0.07,1.381,0.084,2.086c0.029,1.23,0.058,2.461,0.058,3.706v0.039l0.001,0.039
							c0.014,0.529,0.014,1.058,0.014,1.601V400v10.821h-33.851V155.852 M870.035,152.85v260.912h39.733c0,0,0-5.108,0-13.762
							V202.835c0-0.569,0-1.124-0.015-1.679c0-1.27-0.029-2.525-0.059-3.78c-0.015-0.73-0.044-1.459-0.088-2.189
							c-0.044-1.27-0.118-2.525-0.221-3.766c-0.044-0.73-0.118-1.459-0.191-2.189c-0.118-1.27-0.265-2.525-0.441-3.765
							c-0.103-0.745-0.221-1.474-0.353-2.189c-0.221-1.284-0.471-2.539-0.765-3.78c-0.177-0.744-0.368-1.474-0.574-2.189
							c-0.368-1.299-0.779-2.554-1.264-3.766c-0.265-0.744-0.574-1.474-0.897-2.189c-0.588-1.313-1.264-2.569-2.014-3.765
							c-0.456-0.759-0.956-1.489-1.485-2.189c-1-1.357-2.132-2.613-3.397-3.78c-0.838-0.774-1.735-1.503-2.706-2.189
							C889.461,155.273,881.314,152.85,870.035,152.85L870.035,152.85z"/>
						<path style="fill:#F0FFDE;" d="M898.004,161.688h-27.969v-2.206h25.263C896.269,160.173,897.166,160.909,898.004,161.688z"/>
						<path style="fill:#F0FFDE;" d="M902.886,167.702h-32.851v-2.206h31.366C901.93,166.202,902.431,166.938,902.886,167.702z"/>
						<path style="fill:#F0FFDE;" d="M905.798,173.702h-35.763v-2.206h34.866C905.224,172.217,905.533,172.952,905.798,173.702z"/>
						<path style="fill:#F0FFDE;" d="M907.636,179.702h-37.601v-2.206h37.027C907.269,178.217,907.46,178.952,907.636,179.702z"/>
						<path style="fill:#F0FFDE;" d="M908.754,185.716h-38.719v-2.206h38.366C908.533,184.231,908.651,184.966,908.754,185.716z"/>
						<path style="fill:#F0FFDE;" d="M909.386,191.716h-39.351v-2.206h39.16C909.268,190.245,909.342,190.98,909.386,191.716z"/>
						<path style="fill:#F0FFDE;" d="M909.695,197.715h-39.659v-2.206h39.571C909.651,196.245,909.68,196.98,909.695,197.715z"/>
						<path style="fill:#F0FFDE;" d="M909.768,203.215v0.515h-39.733v-2.206h39.718
							C909.768,202.083,909.768,202.641,909.768,203.215z"/>
						<rect x="870.035" y="207.524" style="fill:#F0FFDE;" width="39.733" height="2.206"/>
						<rect x="870.035" y="213.523" style="fill:#F0FFDE;" width="39.733" height="2.206"/>
						<rect x="870.035" y="219.538" style="fill:#F0FFDE;" width="39.733" height="2.206"/>
						<rect x="870.035" y="225.537" style="fill:#F0FFDE;" width="39.733" height="2.206"/>
						<rect x="870.035" y="231.537" style="fill:#F0FFDE;" width="39.733" height="2.206"/>
						<rect x="870.035" y="237.551" style="fill:#F0FFDE;" width="39.733" height="2.206"/>
						<rect x="870.035" y="243.551" style="fill:#F0FFDE;" width="39.733" height="2.206"/>
						<rect x="870.035" y="249.551" style="fill:#F0FFDE;" width="39.733" height="2.206"/>
						<rect x="870.035" y="255.565" style="fill:#F0FFDE;" width="39.733" height="2.206"/>
						<rect x="870.035" y="261.565" style="fill:#F0FFDE;" width="39.733" height="2.206"/>
						<rect x="870.035" y="267.565" style="fill:#F0FFDE;" width="39.733" height="2.206"/>
						<rect x="870.035" y="273.579" style="fill:#F0FFDE;" width="39.733" height="2.206"/>
						<rect x="870.035" y="279.578" style="fill:#F0FFDE;" width="39.733" height="2.206"/>
						<rect x="870.035" y="285.578" style="fill:#F0FFDE;" width="39.733" height="2.206"/>
						<rect x="870.035" y="291.592" style="fill:#F0FFDE;" width="39.733" height="2.206"/>
						<rect x="870.035" y="297.592" style="fill:#F0FFDE;" width="39.733" height="2.206"/>
						<rect x="870.035" y="303.592" style="fill:#F0FFDE;" width="39.733" height="2.206"/>
						<rect x="870.035" y="309.606" style="fill:#F0FFDE;" width="39.733" height="2.206"/>
						<rect x="870.035" y="315.606" style="fill:#F0FFDE;" width="39.733" height="2.206"/>
						<rect x="870.035" y="321.606" style="fill:#F0FFDE;" width="39.733" height="2.206"/>
						<rect x="870.035" y="327.62" style="fill:#F0FFDE;" width="39.733" height="2.206"/>
						<rect x="870.035" y="333.62" style="fill:#F0FFDE;" width="39.733" height="2.206"/>
						<rect x="870.035" y="339.619" style="fill:#F0FFDE;" width="39.733" height="2.206"/>
						<rect x="870.035" y="345.633" style="fill:#F0FFDE;" width="39.733" height="2.206"/>
						<rect x="870.035" y="351.633" style="fill:#F0FFDE;" width="39.733" height="2.206"/>
						<rect x="870.035" y="357.633" style="fill:#F0FFDE;" width="39.733" height="2.206"/>
						<rect x="870.035" y="363.647" style="fill:#F0FFDE;" width="39.733" height="2.206"/>
						<rect x="870.035" y="369.647" style="fill:#F0FFDE;" width="39.733" height="2.206"/>
						<rect x="870.035" y="375.647" style="fill:#F0FFDE;" width="39.733" height="2.206"/>
						<rect x="870.035" y="381.661" style="fill:#F0FFDE;" width="39.733" height="2.206"/>
						<rect x="870.035" y="387.661" style="fill:#F0FFDE;" width="39.733" height="2.206"/>
						<rect x="870.035" y="393.66" style="fill:#F0FFDE;" width="39.733" height="2.206"/>
						<rect x="870.035" y="399.674" style="fill:#F0FFDE;" width="39.733" height="2.206"/>
						<polygon style="fill:#F0FFDE;" points="885.174,157.036 887.379,89.209 889.585,157.036 						"/>
					</g>
					<g>
						<path style="fill:#F0FFDE;" d="M946.578,155.852v254.969h-33.851V400V202.835c0-0.543,0-1.072,0.014-1.601l0.001-0.039v-0.039
							c0-1.245,0.029-2.475,0.058-3.706c0.014-0.705,0.042-1.396,0.084-2.086l0.002-0.037l0.001-0.037
							c0.042-1.22,0.114-2.439,0.212-3.625c0.046-0.753,0.116-1.439,0.185-2.126c0.116-1.248,0.259-2.467,0.428-3.658
							c0.097-0.704,0.209-1.397,0.333-2.069c0.229-1.332,0.467-2.509,0.734-3.636c0.166-0.7,0.347-1.391,0.538-2.053
							c0.37-1.309,0.751-2.444,1.169-3.487l0.021-0.053l0.019-0.054c0.206-0.578,0.462-1.202,0.806-1.963
							c0.523-1.167,1.136-2.313,1.827-3.415c0.41-0.682,0.851-1.332,1.34-1.979c0.896-1.215,1.913-2.346,3.045-3.391
							c0.757-0.698,1.567-1.354,2.409-1.949C931.02,158.224,937.947,156.218,946.578,155.852 M949.519,152.85
							c-11.279,0-19.425,2.423-25.263,6.582c-0.971,0.686-1.867,1.416-2.706,2.189c-1.265,1.167-2.397,2.423-3.397,3.78
							c-0.529,0.701-1.029,1.43-1.485,2.189c-0.75,1.197-1.426,2.452-2.014,3.765c-0.323,0.715-0.632,1.445-0.897,2.189
							c-0.485,1.212-0.897,2.466-1.264,3.766c-0.206,0.715-0.397,1.445-0.574,2.189c-0.294,1.24-0.544,2.496-0.765,3.78
							c-0.132,0.715-0.25,1.445-0.353,2.189c-0.176,1.24-0.324,2.495-0.441,3.765c-0.073,0.73-0.147,1.459-0.191,2.189
							c-0.103,1.241-0.177,2.496-0.221,3.766c-0.044,0.73-0.073,1.459-0.088,2.189c-0.029,1.255-0.059,2.51-0.059,3.78
							c-0.015,0.555-0.015,1.109-0.015,1.679V400c0,8.654,0,13.762,0,13.762h39.733V152.85L949.519,152.85z"/>
						<path style="fill:#F0FFDE;" d="M921.55,161.688h27.969v-2.206h-25.263C923.285,160.173,922.388,160.909,921.55,161.688z"/>
						<path style="fill:#F0FFDE;" d="M916.667,167.702h32.851v-2.206h-31.366C917.623,166.202,917.123,166.938,916.667,167.702z"/>
						<path style="fill:#F0FFDE;" d="M913.756,173.702h35.763v-2.206h-34.866C914.329,172.217,914.021,172.952,913.756,173.702z"/>
						<path style="fill:#F0FFDE;" d="M911.918,179.702h37.601v-2.206h-37.027C912.285,178.217,912.094,178.952,911.918,179.702z"/>
						<path style="fill:#F0FFDE;" d="M910.8,185.716h38.718v-2.206h-38.366C911.021,184.231,910.903,184.966,910.8,185.716z"/>
						<path style="fill:#F0FFDE;" d="M910.168,191.716h39.351v-2.206h-39.159C910.286,190.245,910.212,190.98,910.168,191.716z"/>
						<path style="fill:#F0FFDE;" d="M909.859,197.715h39.659v-2.206h-39.571C909.903,196.245,909.874,196.98,909.859,197.715z"/>
						<path style="fill:#F0FFDE;" d="M909.785,203.215v0.515h39.733v-2.206H909.8C909.785,202.083,909.785,202.641,909.785,203.215z
							"/>
						<rect x="909.785" y="207.524" style="fill:#F0FFDE;" width="39.733" height="2.206"/>
						<rect x="909.785" y="213.523" style="fill:#F0FFDE;" width="39.733" height="2.206"/>
						<rect x="909.785" y="219.538" style="fill:#F0FFDE;" width="39.733" height="2.206"/>
						<rect x="909.785" y="225.537" style="fill:#F0FFDE;" width="39.733" height="2.206"/>
						<rect x="909.785" y="231.537" style="fill:#F0FFDE;" width="39.733" height="2.206"/>
						<rect x="909.785" y="237.551" style="fill:#F0FFDE;" width="39.733" height="2.206"/>
						<rect x="909.785" y="243.551" style="fill:#F0FFDE;" width="39.733" height="2.206"/>
						<rect x="909.785" y="249.551" style="fill:#F0FFDE;" width="39.733" height="2.206"/>
						<rect x="909.785" y="255.565" style="fill:#F0FFDE;" width="39.733" height="2.206"/>
						<rect x="909.785" y="261.565" style="fill:#F0FFDE;" width="39.733" height="2.206"/>
						<rect x="909.785" y="267.565" style="fill:#F0FFDE;" width="39.733" height="2.206"/>
						<rect x="909.785" y="273.579" style="fill:#F0FFDE;" width="39.733" height="2.206"/>
						<rect x="909.785" y="279.578" style="fill:#F0FFDE;" width="39.733" height="2.206"/>
						<rect x="909.785" y="285.578" style="fill:#F0FFDE;" width="39.733" height="2.206"/>
						<rect x="909.785" y="291.592" style="fill:#F0FFDE;" width="39.733" height="2.206"/>
						<rect x="909.785" y="297.592" style="fill:#F0FFDE;" width="39.733" height="2.206"/>
						<rect x="909.785" y="303.592" style="fill:#F0FFDE;" width="39.733" height="2.206"/>
						<rect x="909.785" y="309.606" style="fill:#F0FFDE;" width="39.733" height="2.206"/>
						<rect x="909.785" y="315.606" style="fill:#F0FFDE;" width="39.733" height="2.206"/>
						<rect x="909.785" y="321.606" style="fill:#F0FFDE;" width="39.733" height="2.206"/>
						<rect x="909.785" y="327.62" style="fill:#F0FFDE;" width="39.733" height="2.206"/>
						<rect x="909.785" y="333.62" style="fill:#F0FFDE;" width="39.733" height="2.206"/>
						<rect x="909.785" y="339.619" style="fill:#F0FFDE;" width="39.733" height="2.206"/>
						<rect x="909.785" y="345.633" style="fill:#F0FFDE;" width="39.733" height="2.206"/>
						<rect x="909.785" y="351.633" style="fill:#F0FFDE;" width="39.733" height="2.206"/>
						<rect x="909.785" y="357.633" style="fill:#F0FFDE;" width="39.733" height="2.206"/>
						<rect x="909.785" y="363.647" style="fill:#F0FFDE;" width="39.733" height="2.206"/>
						<rect x="909.785" y="369.647" style="fill:#F0FFDE;" width="39.733" height="2.206"/>
						<rect x="909.785" y="375.647" style="fill:#F0FFDE;" width="39.733" height="2.206"/>
						<rect x="909.785" y="381.661" style="fill:#F0FFDE;" width="39.733" height="2.206"/>
						<rect x="909.785" y="387.661" style="fill:#F0FFDE;" width="39.733" height="2.206"/>
						<rect x="909.785" y="393.66" style="fill:#F0FFDE;" width="39.733" height="2.206"/>
						<rect x="909.785" y="399.674" style="fill:#F0FFDE;" width="39.733" height="2.206"/>
						<polygon style="fill:#F0FFDE;" points="934.38,157.036 932.174,89.209 929.969,157.036 						"/>
					</g>
					<path style="fill:#F0FFDE;" d="M909.768,158.538h-11.367c0,0,9.423,7.307,11.367,21.164
						c1.945-13.858,11.367-21.164,11.367-21.164H909.768z"/>
				</g>
			</g>
			<path style="fill:#F0FFDE;" d="M1040,429.67V500H352.26c-0.24-1.3-0.38,0-0.38,0S798.27,346.99,1040,429.67z"/>
		</g>
		<g style="opacity:0.3;">
			<g>
				<path style="fill:#159356;" d="M674.478,256.174h-5.84v-29.838h-2.124v29.838h-16.988v6.486h-7.963v165.763h15.063h13.182
					h14.224V262.66h-9.556V256.174z M650.917,411.847h-5.106v-10.162h5.106V411.847z M650.917,396.928h-5.106v-10.162h5.106V396.928
					z M650.917,382.01h-5.106v-10.162h5.106V382.01z M650.917,367.091h-5.106v-10.162h5.106V367.091z M650.917,352.172h-5.106
					V342.01h5.106V352.172z M650.917,337.254h-5.106v-10.162h5.106V337.254z M650.917,322.335h-5.106v-10.162h5.106V322.335z
					 M650.917,307.416h-5.106v-10.162h5.106V307.416z M650.917,292.497h-5.106v-10.162h5.106V292.497z M650.917,277.579h-5.106
					v-10.162h5.106V277.579z M660.363,411.847h-5.106v-10.162h5.106V411.847z M660.363,396.928h-5.106v-10.162h5.106V396.928z
					 M660.363,382.01h-5.106v-10.162h5.106V382.01z M660.363,367.091h-5.106v-10.162h5.106V367.091z M660.363,352.172h-5.106V342.01
					h5.106V352.172z M660.363,337.254h-5.106v-10.162h5.106V337.254z M660.363,322.335h-5.106v-10.162h5.106V322.335z
					 M660.363,307.416h-5.106v-10.162h5.106V307.416z M660.363,292.497h-5.106v-10.162h5.106V292.497z M660.363,277.579h-5.106
					v-10.162h5.106V277.579z M669.81,411.847h-5.106v-10.162h5.106V411.847z M669.81,396.928h-5.106v-10.162h5.106V396.928z
					 M669.81,382.01h-5.106v-10.162h5.106V382.01z M669.81,367.091h-5.106v-10.162h5.106V367.091z M669.81,352.172h-5.106V342.01
					h5.106V352.172z M669.81,337.254h-5.106v-10.162h5.106V337.254z M669.81,322.335h-5.106v-10.162h5.106V322.335z M669.81,307.416
					h-5.106v-10.162h5.106V307.416z M669.81,292.497h-5.106v-10.162h5.106V292.497z M669.81,277.579h-5.106v-10.162h5.106V277.579z
					 M679.256,411.847h-5.106v-10.162h5.106V411.847z M679.256,396.928h-5.106v-10.162h5.106V396.928z M679.256,382.01h-5.106
					v-10.162h5.106V382.01z M679.256,367.091h-5.106v-10.162h5.106V367.091z M679.256,352.172h-5.106V342.01h5.106V352.172z
					 M679.256,337.254h-5.106v-10.162h5.106V337.254z M679.256,322.335h-5.106v-10.162h5.106V322.335z M679.256,307.416h-5.106
					v-10.162h5.106V307.416z M679.256,292.497h-5.106v-10.162h5.106V292.497z M679.256,267.417v10.162h-5.106v-10.162H679.256z"/>
				<path style="fill:#159356;" d="M731.883,228.364h-5.018v-10.442h-11.194l-0.762-28.755l-0.762,28.755h-11.194v10.442h-5.018
					v16.27h-9.249v176.306h52.446V244.633h-9.249V228.364z M727.73,231.743v10.448h-3.905v-10.448H727.73z M720.339,231.743v10.448
					h-3.905v-10.448H720.339z M712.948,231.743v10.448h-3.905v-10.448H712.948z M701.652,231.743h3.905v10.448h-3.905V231.743z
					 M735.888,401.403h-42.831v-4.478h42.831V401.403z M735.888,393h-42.831v-4.478h42.831V393z M735.888,384.598h-42.831v-4.478
					h42.831V384.598z M735.888,376.195h-42.831v-4.478h42.831V376.195z M735.888,367.793h-42.831v-4.478h42.831V367.793z
					 M735.888,359.39h-42.831v-4.478h42.831V359.39z M735.888,350.987h-42.831v-4.478h42.831V350.987z M735.888,342.145h-42.831
					v-4.478h42.831V342.145z M735.888,333.303h-42.831v-4.478h42.831V333.303z M735.888,324.461h-42.831v-4.478h42.831V324.461z
					 M735.888,315.619h-42.831v-4.478h42.831V315.619z M735.888,306.777h-42.831v-4.478h42.831V306.777z M735.888,297.935h-42.831
					v-4.478h42.831V297.935z M735.888,289.093h-42.831v-4.478h42.831V289.093z M735.888,280.251h-42.831v-4.478h42.831V280.251z
					 M735.888,271.409h-42.831v-4.478h42.831V271.409z M735.888,262.567h-42.831v-4.478h42.831V262.567z M735.888,249.247v4.478
					h-42.831v-4.478H735.888z"/>
				<path style="fill:#159356;" d="M805.318,247.095h-8.057V216.6H761.52v30.494h-8.057v16.312h-7.495v149.794h13.136h12.364h15.846
					h12.364h13.136V263.406h-7.495V247.095z M755.828,398.486h-5.177V386.78h5.177V398.486z M755.828,382.079h-5.177v-11.706h5.177
					V382.079z M755.828,362.619h-5.177v-11.706h5.177V362.619z M755.828,345.89h-5.177v-11.706h5.177V345.89z M755.828,329.161
					h-5.177v-11.706h5.177V329.161z M755.828,312.432h-5.177v-11.706h5.177V312.432z M755.828,295.703h-5.177v-11.706h5.177V295.703
					z M755.828,279.296h-5.177v-11.706h5.177V279.296z M758.795,260.664h-2.968V249.26h2.968V260.664z M777.906,220.7h2.967v39.964
					h-2.967V220.7z M764.632,398.486h-5.177V386.78h5.177V398.486z M764.632,382.079h-5.177v-11.706h5.177V382.079z
					 M764.632,362.619h-5.177v-11.706h5.177V362.619z M764.632,345.89h-5.177v-11.706h5.177V345.89z M764.632,329.161h-5.177
					v-11.706h5.177V329.161z M764.632,312.432h-5.177v-11.706h5.177V312.432z M764.632,295.703h-5.177v-11.706h5.177V295.703z
					 M764.632,279.296h-5.177v-11.706h5.177V279.296z M768.253,260.664h-2.967V220.7h2.967V260.664z M773.437,398.486h-5.177V386.78
					h5.177V398.486z M773.437,382.079h-5.177v-11.706h5.177V382.079z M773.437,362.619h-5.177v-11.706h5.177V362.619z
					 M773.437,345.89h-5.177v-11.706h5.177V345.89z M773.437,329.161h-5.177v-11.706h5.177V329.161z M773.437,312.432h-5.177
					v-11.706h5.177V312.432z M773.437,295.703h-5.177v-11.706h5.177V295.703z M773.437,279.296h-5.177v-11.706h5.177V279.296z
					 M774.563,260.664h-2.967V220.7h2.967V260.664z M782.242,398.486h-5.177V386.78h5.177V398.486z M782.242,382.079h-5.177v-11.706
					h5.177V382.079z M782.242,362.619h-5.177v-11.706h5.177V362.619z M782.242,345.89h-5.177v-11.706h5.177V345.89z
					 M782.242,329.161h-5.177v-11.706h5.177V329.161z M782.242,312.432h-5.177v-11.706h5.177V312.432z M782.242,295.703h-5.177
					v-11.706h5.177V295.703z M782.242,279.296h-5.177v-11.706h5.177V279.296z M784.217,220.7h2.967v39.964h-2.967V220.7z
					 M791.046,398.486h-5.177V386.78h5.177V398.486z M791.046,382.079h-5.177v-11.706h5.177V382.079z M791.046,362.619h-5.177
					v-11.706h5.177V362.619z M791.046,345.89h-5.177v-11.706h5.177V345.89z M791.046,329.161h-5.177v-11.706h5.177V329.161z
					 M791.046,312.432h-5.177v-11.706h5.177V312.432z M791.046,295.703h-5.177v-11.706h5.177V295.703z M791.046,279.296h-5.177
					v-11.706h5.177V279.296z M793.495,260.664h-2.967V220.7h2.967V260.664z M799.85,398.486h-5.177V386.78h5.177V398.486z
					 M799.85,382.079h-5.177v-11.706h5.177V382.079z M799.85,362.619h-5.177v-11.706h5.177V362.619z M799.85,345.89h-5.177v-11.706
					h5.177V345.89z M799.85,329.161h-5.177v-11.706h5.177V329.161z M799.85,312.432h-5.177v-11.706h5.177V312.432z M799.85,295.703
					h-5.177v-11.706h5.177V295.703z M799.85,279.296h-5.177v-11.706h5.177V279.296z M802.802,260.664h-2.967V249.26h2.967V260.664z
					 M808.655,398.486h-5.177V386.78h5.177V398.486z M808.655,382.079h-5.177v-11.706h5.177V382.079z M808.655,362.619h-5.177
					v-11.706h5.177V362.619z M808.655,345.89h-5.177v-11.706h5.177V345.89z M808.655,329.161h-5.177v-11.706h5.177V329.161z
					 M808.655,312.432h-5.177v-11.706h5.177V312.432z M808.655,295.703h-5.177v-11.706h5.177V295.703z M808.655,267.589v11.706
					h-5.177v-11.706H808.655z"/>
				<path style="fill:#159356;" d="M819.915,203.766v215.218h13.518h16.113h13.518V203.766L841.49,164.04L819.915,203.766z
					 M829.731,389.358h-4.388V217.376h4.388V389.358z M839.033,399.357h-4.388v-190.87h4.388V399.357z M853.249,217.376h4.388
					v171.982h-4.388V217.376z M843.947,208.488h4.388v190.87h-4.388V208.488z"/>
				<path style="fill:#159356;" d="M1001.829,268.522l-7.089-3.735v-25.192h-21.138v-26.785h-2.062v26.785v12.969l-15.466-8.148
					v176.055h16.5h12.754h16.5V268.522z M965.87,407.616h-4.64v-18.343h4.64V407.616z M965.87,384.266h-4.64v-18.343h4.64V384.266z
					 M965.87,360.916h-4.64v-18.343h4.64V360.916z M965.87,337.566h-4.64v-18.343h4.64V337.566z M965.87,314.216h-4.64v-18.343h4.64
					V314.216z M965.87,290.866h-4.64v-18.343h4.64V290.866z M975.923,407.616h-4.64v-18.343h4.64V407.616z M975.923,384.266h-4.64
					v-18.343h4.64V384.266z M975.923,360.916h-4.64v-18.343h4.64V360.916z M975.923,337.566h-4.64v-18.343h4.64V337.566z
					 M975.923,314.216h-4.64v-18.343h4.64V314.216z M975.923,290.866h-4.64v-18.343h4.64V290.866z M985.976,407.616h-4.64v-18.343
					h4.64V407.616z M985.976,384.266h-4.64v-18.343h4.64V384.266z M985.976,360.916h-4.64v-18.343h4.64V360.916z M985.976,337.566
					h-4.64v-18.343h4.64V337.566z M985.976,314.216h-4.64v-18.343h4.64V314.216z M985.976,290.866h-4.64v-18.343h4.64V290.866z
					 M996.029,407.616h-4.64v-18.343h4.64V407.616z M996.029,384.266h-4.64v-18.343h4.64V384.266z M996.029,360.916h-4.64v-18.343
					h4.64V360.916z M996.029,337.566h-4.64v-18.343h4.64V337.566z M996.029,314.216h-4.64v-18.343h4.64V314.216z M996.029,290.866
					h-4.64v-18.343h4.64V290.866z"/>
				<g>
					<g>
						<path style="fill:#159356;" d="M872.976,155.852c8.631,0.365,15.557,2.371,20.625,5.981c0.841,0.595,1.652,1.251,2.409,1.949
							c1.132,1.045,2.149,2.176,3.045,3.391c0.489,0.647,0.93,1.296,1.34,1.979c0.691,1.102,1.304,2.248,1.827,3.415
							c0.344,0.761,0.6,1.385,0.806,1.963l0.019,0.054l0.021,0.053c0.418,1.043,0.798,2.178,1.169,3.487
							c0.191,0.662,0.372,1.352,0.538,2.053c0.267,1.127,0.505,2.304,0.734,3.636c0.124,0.672,0.236,1.364,0.333,2.069
							c0.169,1.191,0.312,2.41,0.428,3.658c0.069,0.687,0.139,1.374,0.185,2.126c0.099,1.186,0.17,2.405,0.212,3.625l0.001,0.037
							l0.002,0.037c0.042,0.69,0.07,1.381,0.084,2.086c0.029,1.23,0.058,2.461,0.058,3.706v0.039l0.001,0.039
							c0.014,0.529,0.014,1.058,0.014,1.601V400v10.821h-33.851V155.852 M870.035,152.85v260.912h39.733c0,0,0-5.108,0-13.762
							V202.835c0-0.569,0-1.124-0.015-1.679c0-1.27-0.029-2.525-0.059-3.78c-0.015-0.73-0.044-1.459-0.088-2.189
							c-0.044-1.27-0.118-2.525-0.221-3.766c-0.044-0.73-0.118-1.459-0.191-2.189c-0.118-1.27-0.265-2.525-0.441-3.765
							c-0.103-0.745-0.221-1.474-0.353-2.189c-0.221-1.284-0.471-2.539-0.765-3.78c-0.177-0.744-0.368-1.474-0.574-2.189
							c-0.368-1.299-0.779-2.554-1.264-3.766c-0.265-0.744-0.574-1.474-0.897-2.189c-0.588-1.313-1.264-2.569-2.014-3.765
							c-0.456-0.759-0.956-1.489-1.485-2.189c-1-1.357-2.132-2.613-3.397-3.78c-0.838-0.774-1.735-1.503-2.706-2.189
							C889.461,155.273,881.314,152.85,870.035,152.85L870.035,152.85z"/>
						<path style="fill:#159356;" d="M898.004,161.688h-27.969v-2.206h25.263C896.269,160.173,897.166,160.909,898.004,161.688z"/>
						<path style="fill:#159356;" d="M902.886,167.702h-32.851v-2.206h31.366C901.93,166.202,902.431,166.938,902.886,167.702z"/>
						<path style="fill:#159356;" d="M905.798,173.702h-35.763v-2.206h34.866C905.224,172.217,905.533,172.952,905.798,173.702z"/>
						<path style="fill:#159356;" d="M907.636,179.702h-37.601v-2.206h37.027C907.269,178.217,907.46,178.952,907.636,179.702z"/>
						<path style="fill:#159356;" d="M908.754,185.716h-38.719v-2.206h38.366C908.533,184.231,908.651,184.966,908.754,185.716z"/>
						<path style="fill:#159356;" d="M909.386,191.716h-39.351v-2.206h39.16C909.268,190.245,909.342,190.98,909.386,191.716z"/>
						<path style="fill:#159356;" d="M909.695,197.715h-39.659v-2.206h39.571C909.651,196.245,909.68,196.98,909.695,197.715z"/>
						<path style="fill:#159356;" d="M909.768,203.215v0.515h-39.733v-2.206h39.718
							C909.768,202.083,909.768,202.641,909.768,203.215z"/>
						<rect x="870.035" y="207.524" style="fill:#159356;" width="39.733" height="2.206"/>
						<rect x="870.035" y="213.523" style="fill:#159356;" width="39.733" height="2.206"/>
						<rect x="870.035" y="219.538" style="fill:#159356;" width="39.733" height="2.206"/>
						<rect x="870.035" y="225.537" style="fill:#159356;" width="39.733" height="2.206"/>
						<rect x="870.035" y="231.537" style="fill:#159356;" width="39.733" height="2.206"/>
						<rect x="870.035" y="237.551" style="fill:#159356;" width="39.733" height="2.206"/>
						<rect x="870.035" y="243.551" style="fill:#159356;" width="39.733" height="2.206"/>
						<rect x="870.035" y="249.551" style="fill:#159356;" width="39.733" height="2.206"/>
						<rect x="870.035" y="255.565" style="fill:#159356;" width="39.733" height="2.206"/>
						<rect x="870.035" y="261.565" style="fill:#159356;" width="39.733" height="2.206"/>
						<rect x="870.035" y="267.565" style="fill:#159356;" width="39.733" height="2.206"/>
						<rect x="870.035" y="273.579" style="fill:#159356;" width="39.733" height="2.206"/>
						<rect x="870.035" y="279.578" style="fill:#159356;" width="39.733" height="2.206"/>
						<rect x="870.035" y="285.578" style="fill:#159356;" width="39.733" height="2.206"/>
						<rect x="870.035" y="291.592" style="fill:#159356;" width="39.733" height="2.206"/>
						<rect x="870.035" y="297.592" style="fill:#159356;" width="39.733" height="2.206"/>
						<rect x="870.035" y="303.592" style="fill:#159356;" width="39.733" height="2.206"/>
						<rect x="870.035" y="309.606" style="fill:#159356;" width="39.733" height="2.206"/>
						<rect x="870.035" y="315.606" style="fill:#159356;" width="39.733" height="2.206"/>
						<rect x="870.035" y="321.606" style="fill:#159356;" width="39.733" height="2.206"/>
						<rect x="870.035" y="327.62" style="fill:#159356;" width="39.733" height="2.206"/>
						<rect x="870.035" y="333.62" style="fill:#159356;" width="39.733" height="2.206"/>
						<rect x="870.035" y="339.619" style="fill:#159356;" width="39.733" height="2.206"/>
						<rect x="870.035" y="345.633" style="fill:#159356;" width="39.733" height="2.206"/>
						<rect x="870.035" y="351.633" style="fill:#159356;" width="39.733" height="2.206"/>
						<rect x="870.035" y="357.633" style="fill:#159356;" width="39.733" height="2.206"/>
						<rect x="870.035" y="363.647" style="fill:#159356;" width="39.733" height="2.206"/>
						<rect x="870.035" y="369.647" style="fill:#159356;" width="39.733" height="2.206"/>
						<rect x="870.035" y="375.647" style="fill:#159356;" width="39.733" height="2.206"/>
						<rect x="870.035" y="381.661" style="fill:#159356;" width="39.733" height="2.206"/>
						<rect x="870.035" y="387.661" style="fill:#159356;" width="39.733" height="2.206"/>
						<rect x="870.035" y="393.66" style="fill:#159356;" width="39.733" height="2.206"/>
						<rect x="870.035" y="399.674" style="fill:#159356;" width="39.733" height="2.206"/>
						<polygon style="fill:#159356;" points="885.174,157.036 887.379,89.209 889.585,157.036 						"/>
					</g>
					<g>
						<path style="fill:#159356;" d="M946.578,155.852v254.969h-33.851V400V202.835c0-0.543,0-1.072,0.014-1.601l0.001-0.039v-0.039
							c0-1.245,0.029-2.475,0.058-3.706c0.014-0.705,0.042-1.396,0.084-2.086l0.002-0.037l0.001-0.037
							c0.042-1.22,0.114-2.439,0.212-3.625c0.046-0.753,0.116-1.439,0.185-2.126c0.116-1.248,0.259-2.467,0.428-3.658
							c0.097-0.704,0.209-1.397,0.333-2.069c0.229-1.332,0.467-2.509,0.734-3.636c0.166-0.7,0.347-1.391,0.538-2.053
							c0.37-1.309,0.751-2.444,1.169-3.487l0.021-0.053l0.019-0.054c0.206-0.578,0.462-1.202,0.806-1.963
							c0.523-1.167,1.136-2.313,1.827-3.415c0.41-0.682,0.851-1.332,1.34-1.979c0.896-1.215,1.913-2.346,3.045-3.391
							c0.757-0.698,1.567-1.354,2.409-1.949C931.02,158.224,937.947,156.218,946.578,155.852 M949.519,152.85
							c-11.279,0-19.425,2.423-25.263,6.582c-0.971,0.686-1.867,1.416-2.706,2.189c-1.265,1.167-2.397,2.423-3.397,3.78
							c-0.529,0.701-1.029,1.43-1.485,2.189c-0.75,1.197-1.426,2.452-2.014,3.765c-0.323,0.715-0.632,1.445-0.897,2.189
							c-0.485,1.212-0.897,2.466-1.264,3.766c-0.206,0.715-0.397,1.445-0.574,2.189c-0.294,1.24-0.544,2.496-0.765,3.78
							c-0.132,0.715-0.25,1.445-0.353,2.189c-0.176,1.24-0.324,2.495-0.441,3.765c-0.073,0.73-0.147,1.459-0.191,2.189
							c-0.103,1.241-0.177,2.496-0.221,3.766c-0.044,0.73-0.073,1.459-0.088,2.189c-0.029,1.255-0.059,2.51-0.059,3.78
							c-0.015,0.555-0.015,1.109-0.015,1.679V400c0,8.654,0,13.762,0,13.762h39.733V152.85L949.519,152.85z"/>
						<path style="fill:#159356;" d="M921.55,161.688h27.969v-2.206h-25.263C923.285,160.173,922.388,160.909,921.55,161.688z"/>
						<path style="fill:#159356;" d="M916.667,167.702h32.851v-2.206h-31.366C917.623,166.202,917.123,166.938,916.667,167.702z"/>
						<path style="fill:#159356;" d="M913.756,173.702h35.763v-2.206h-34.866C914.329,172.217,914.021,172.952,913.756,173.702z"/>
						<path style="fill:#159356;" d="M911.918,179.702h37.601v-2.206h-37.027C912.285,178.217,912.094,178.952,911.918,179.702z"/>
						<path style="fill:#159356;" d="M910.8,185.716h38.718v-2.206h-38.366C911.021,184.231,910.903,184.966,910.8,185.716z"/>
						<path style="fill:#159356;" d="M910.168,191.716h39.351v-2.206h-39.159C910.286,190.245,910.212,190.98,910.168,191.716z"/>
						<path style="fill:#159356;" d="M909.859,197.715h39.659v-2.206h-39.571C909.903,196.245,909.874,196.98,909.859,197.715z"/>
						<path style="fill:#159356;" d="M909.785,203.215v0.515h39.733v-2.206H909.8C909.785,202.083,909.785,202.641,909.785,203.215z
							"/>
						<rect x="909.785" y="207.524" style="fill:#159356;" width="39.733" height="2.206"/>
						<rect x="909.785" y="213.523" style="fill:#159356;" width="39.733" height="2.206"/>
						<rect x="909.785" y="219.538" style="fill:#159356;" width="39.733" height="2.206"/>
						<rect x="909.785" y="225.537" style="fill:#159356;" width="39.733" height="2.206"/>
						<rect x="909.785" y="231.537" style="fill:#159356;" width="39.733" height="2.206"/>
						<rect x="909.785" y="237.551" style="fill:#159356;" width="39.733" height="2.206"/>
						<rect x="909.785" y="243.551" style="fill:#159356;" width="39.733" height="2.206"/>
						<rect x="909.785" y="249.551" style="fill:#159356;" width="39.733" height="2.206"/>
						<rect x="909.785" y="255.565" style="fill:#159356;" width="39.733" height="2.206"/>
						<rect x="909.785" y="261.565" style="fill:#159356;" width="39.733" height="2.206"/>
						<rect x="909.785" y="267.565" style="fill:#159356;" width="39.733" height="2.206"/>
						<rect x="909.785" y="273.579" style="fill:#159356;" width="39.733" height="2.206"/>
						<rect x="909.785" y="279.578" style="fill:#159356;" width="39.733" height="2.206"/>
						<rect x="909.785" y="285.578" style="fill:#159356;" width="39.733" height="2.206"/>
						<rect x="909.785" y="291.592" style="fill:#159356;" width="39.733" height="2.206"/>
						<rect x="909.785" y="297.592" style="fill:#159356;" width="39.733" height="2.206"/>
						<rect x="909.785" y="303.592" style="fill:#159356;" width="39.733" height="2.206"/>
						<rect x="909.785" y="309.606" style="fill:#159356;" width="39.733" height="2.206"/>
						<rect x="909.785" y="315.606" style="fill:#159356;" width="39.733" height="2.206"/>
						<rect x="909.785" y="321.606" style="fill:#159356;" width="39.733" height="2.206"/>
						<rect x="909.785" y="327.62" style="fill:#159356;" width="39.733" height="2.206"/>
						<rect x="909.785" y="333.62" style="fill:#159356;" width="39.733" height="2.206"/>
						<rect x="909.785" y="339.619" style="fill:#159356;" width="39.733" height="2.206"/>
						<rect x="909.785" y="345.633" style="fill:#159356;" width="39.733" height="2.206"/>
						<rect x="909.785" y="351.633" style="fill:#159356;" width="39.733" height="2.206"/>
						<rect x="909.785" y="357.633" style="fill:#159356;" width="39.733" height="2.206"/>
						<rect x="909.785" y="363.647" style="fill:#159356;" width="39.733" height="2.206"/>
						<rect x="909.785" y="369.647" style="fill:#159356;" width="39.733" height="2.206"/>
						<rect x="909.785" y="375.647" style="fill:#159356;" width="39.733" height="2.206"/>
						<rect x="909.785" y="381.661" style="fill:#159356;" width="39.733" height="2.206"/>
						<rect x="909.785" y="387.661" style="fill:#159356;" width="39.733" height="2.206"/>
						<rect x="909.785" y="393.66" style="fill:#159356;" width="39.733" height="2.206"/>
						<rect x="909.785" y="399.674" style="fill:#159356;" width="39.733" height="2.206"/>
						<polygon style="fill:#159356;" points="934.38,157.036 932.174,89.209 929.969,157.036 						"/>
					</g>
					<path style="fill:#159356;" d="M909.768,158.538h-11.367c0,0,9.423,7.307,11.367,21.164
						c1.945-13.858,11.367-21.164,11.367-21.164H909.768z"/>
				</g>
			</g>
			<path style="fill:#159356;" d="M1040,429.67V500H352.26c-0.24-1.3-0.38,0-0.38,0S798.27,346.99,1040,429.67z"/>
		</g>
	</g>
	<g>
		<g>
			<g>
				<g>
					<path style="fill:#159356;" d="M994.291,116.049L994.291,116.049c0.153,0-1.306-15.386-1.306-15.386
						c0-0.721,0.585-1.306,1.306-1.306l0,0c0.721,0,1.306,0.585,1.306,1.306L994.291,116.049z"/>
					<path style="fill:#159356;" d="M999.293,121.408L999.293,121.408c0,0.153,15.386-1.306,15.386-1.306
						c0.721,0,1.306,0.585,1.306,1.306l0,0c0,0.721-0.585,1.306-1.306,1.306L999.293,121.408z"/>
					<path style="fill:#159356;" d="M993.934,126.41L993.934,126.41c-0.153,0,1.306,15.386,1.306,15.386
						c0,0.721-0.585,1.306-1.306,1.306l0,0c-0.721,0-1.306-0.585-1.306-1.306L993.934,126.41z"/>
					<path style="fill:#159356;" d="M988.931,121.051L988.931,121.051c0-0.153-15.386,1.306-15.386,1.306
						c-0.721,0-1.306-0.585-1.306-1.306l0,0c0-0.721,0.585-1.306,1.306-1.306L988.931,121.051z"/>
				</g>
				<g>
					<path style="fill:#159356;" d="M997.055,115.476L997.055,115.476c0.173,0.081,6.666-18.057,6.666-18.057
						c0.382-0.814,1.351-1.165,2.165-0.783l0,0c0.814,0.382,1.165,1.351,0.783,2.165L997.055,115.476z"/>
					<path style="fill:#159356;" d="M999.866,124.172L999.866,124.172c-0.081,0.173,18.057,6.666,18.057,6.666
						c0.814,0.382,1.164,1.351,0.783,2.165l0,0c-0.382,0.814-1.351,1.165-2.165,0.783L999.866,124.172z"/>
					<path style="fill:#159356;" d="M991.17,126.983L991.17,126.983c-0.173-0.081-6.666,18.057-6.666,18.057
						c-0.381,0.814-1.351,1.165-2.165,0.783l0,0c-0.814-0.382-1.165-1.351-0.783-2.165L991.17,126.983z"/>
					<path style="fill:#159356;" d="M988.359,118.287L988.359,118.287c0.081-0.173-18.057-6.666-18.057-6.666
						c-0.814-0.382-1.165-1.351-0.783-2.165l0,0c0.382-0.814,1.351-1.165,2.165-0.783L988.359,118.287z"/>
				</g>
				<g>
					<path style="fill:#159356;" d="M1000.129,118.872L1000.129,118.872c0.076,0.175,16.959-9.103,16.959-9.103
						c0.825-0.357,1.783,0.023,2.14,0.848v0c0.357,0.825-0.023,1.783-0.849,2.14L1000.129,118.872z"/>
					<path style="fill:#159356;" d="M996.47,127.246L996.47,127.246c-0.175,0.076,9.103,16.959,9.103,16.959
						c0.357,0.825-0.023,1.783-0.848,2.14h0c-0.825,0.357-1.783-0.023-2.14-0.848L996.47,127.246z"/>
					<path style="fill:#159356;" d="M988.096,123.587L988.096,123.587c-0.076-0.175-16.959,9.103-16.959,9.103
						c-0.825,0.357-1.783-0.023-2.14-0.848l0,0c-0.357-0.825,0.023-1.783,0.848-2.14L988.096,123.587z"/>
					<path style="fill:#159356;" d="M991.755,115.213L991.755,115.213c0.175-0.076-9.103-16.959-9.103-16.959
						c-0.357-0.825,0.023-1.783,0.848-2.14l0,0c0.825-0.357,1.783,0.023,2.14,0.848L991.755,115.213z"/>
				</g>
				<g>
					<path style="fill:#159356;" d="M996.801,118.72L996.801,118.72c0.077,0.077,7.064-8.375,7.064-8.375
						c0.362-0.362,0.949-0.362,1.31,0l0,0c0.362,0.362,0.362,0.949,0,1.31L996.801,118.72z"/>
					<path style="fill:#159356;" d="M996.622,123.919L996.622,123.919c-0.077,0.077,8.375,7.064,8.375,7.064
						c0.362,0.362,0.362,0.948,0,1.31l0,0c-0.362,0.362-0.949,0.362-1.31,0L996.622,123.919z"/>
					<path style="fill:#159356;" d="M991.423,123.739L991.423,123.739c-0.077-0.077-7.064,8.375-7.064,8.375
						c-0.362,0.362-0.948,0.362-1.31,0l0,0c-0.362-0.362-0.362-0.949,0-1.31L991.423,123.739z"/>
					<path style="fill:#159356;" d="M991.602,118.54L991.602,118.54c0.077-0.077-8.375-7.064-8.375-7.064
						c-0.362-0.362-0.362-0.949,0-1.31l0,0c0.362-0.362,0.948-0.362,1.31,0L991.602,118.54z"/>
				</g>
			</g>
			<g>
				<g>
					<path style="fill:#159356;" d="M604.856,135.045L604.856,135.045c0.148,0-1.268-14.932-1.268-14.932
						c0-0.7,0.568-1.267,1.268-1.267l0,0c0.7,0,1.267,0.567,1.267,1.267L604.856,135.045z"/>
					<path style="fill:#159356;" d="M609.711,140.247L609.711,140.247c0,0.149,14.932-1.267,14.932-1.267
						c0.7,0,1.267,0.567,1.267,1.267l0,0c0,0.7-0.567,1.267-1.267,1.267L609.711,140.247z"/>
					<path style="fill:#159356;" d="M604.509,145.102L604.509,145.102c-0.148,0,1.267,14.932,1.267,14.932
						c0,0.7-0.567,1.267-1.267,1.267l0,0c-0.7,0-1.267-0.567-1.267-1.267L604.509,145.102z"/>
					<path style="fill:#159356;" d="M599.655,139.9L599.655,139.9c0-0.149-14.932,1.267-14.932,1.267
						c-0.7,0-1.267-0.567-1.267-1.267l0,0c0-0.7,0.567-1.267,1.267-1.267L599.655,139.9z"/>
				</g>
				<g>
					<path style="fill:#159356;" d="M607.539,134.49L607.539,134.49c0.168,0.078,6.469-17.524,6.469-17.524
						c0.37-0.79,1.311-1.13,2.101-0.76l0,0c0.79,0.37,1.13,1.311,0.76,2.101L607.539,134.49z"/>
					<path style="fill:#159356;" d="M610.266,142.929L610.266,142.929c-0.078,0.168,17.524,6.469,17.524,6.469
						c0.79,0.37,1.13,1.311,0.76,2.101l0,0c-0.37,0.79-1.311,1.13-2.101,0.76L610.266,142.929z"/>
					<path style="fill:#159356;" d="M601.827,145.657L601.827,145.657c-0.168-0.079-6.469,17.524-6.469,17.524
						c-0.37,0.79-1.311,1.13-2.101,0.76l0,0c-0.79-0.37-1.13-1.311-0.76-2.101L601.827,145.657z"/>
					<path style="fill:#159356;" d="M599.099,137.218L599.099,137.218c0.079-0.168-17.524-6.469-17.524-6.469
						c-0.79-0.37-1.13-1.311-0.76-2.101l0,0c0.37-0.79,1.311-1.13,2.101-0.76L599.099,137.218z"/>
				</g>
				<g>
					<path style="fill:#159356;" d="M610.522,137.785L610.522,137.785c0.074,0.17,16.459-8.834,16.459-8.834
						c0.801-0.346,1.731,0.022,2.077,0.823v0c0.346,0.801-0.023,1.731-0.823,2.077L610.522,137.785z"/>
					<path style="fill:#159356;" d="M606.971,145.913L606.971,145.913c-0.17,0.074,8.834,16.459,8.834,16.459
						c0.346,0.801-0.023,1.731-0.823,2.077h0c-0.801,0.346-1.731-0.022-2.077-0.823L606.971,145.913z"/>
					<path style="fill:#159356;" d="M598.844,142.362L598.844,142.362c-0.073-0.17-16.458,8.834-16.458,8.834
						c-0.801,0.346-1.731-0.022-2.077-0.823l0,0c-0.346-0.801,0.023-1.731,0.823-2.077L598.844,142.362z"/>
					<path style="fill:#159356;" d="M602.395,134.234L602.395,134.234c0.17-0.074-8.834-16.459-8.834-16.459
						c-0.346-0.801,0.023-1.731,0.823-2.077l0,0c0.801-0.346,1.731,0.023,2.077,0.823L602.395,134.234z"/>
				</g>
				<g>
					<path style="fill:#159356;" d="M607.293,137.638L607.293,137.638c0.075,0.074,6.856-8.128,6.856-8.128
						c0.351-0.351,0.921-0.351,1.272,0l0,0c0.351,0.351,0.351,0.92,0,1.272L607.293,137.638z"/>
					<path style="fill:#159356;" d="M607.119,142.683L607.119,142.683c-0.075,0.075,8.128,6.856,8.128,6.856
						c0.351,0.351,0.351,0.92,0,1.272l0,0c-0.351,0.351-0.921,0.351-1.272,0L607.119,142.683z"/>
					<path style="fill:#159356;" d="M602.073,142.509L602.073,142.509c-0.075-0.074-6.856,8.127-6.856,8.127
						c-0.351,0.351-0.921,0.351-1.272,0l0,0c-0.351-0.351-0.351-0.921,0-1.272L602.073,142.509z"/>
					<path style="fill:#159356;" d="M602.247,137.464L602.247,137.464c0.075-0.075-8.128-6.856-8.128-6.856
						c-0.351-0.351-0.351-0.921,0-1.272l0,0c0.351-0.351,0.921-0.351,1.272,0L602.247,137.464z"/>
				</g>
			</g>
			<g>
				<g>
					<g>
						<path style="fill:#159356;" d="M820.636,33.599c0,2.178-0.289,3.944-0.646,3.944c-0.357,0-0.646-1.766-0.646-3.944
							c0-2.178,0.289-3.944,0.646-3.944C820.347,29.656,820.636,31.421,820.636,33.599z"/>
						<path style="fill:#159356;" d="M827.045,41.45c-2.178,0-3.944-0.289-3.944-0.646c0-0.357,1.766-0.646,3.944-0.646
							c2.178,0,3.944,0.289,3.944,0.646C830.989,41.161,829.223,41.45,827.045,41.45z"/>
						<path style="fill:#159356;" d="M819.194,47.859c0-2.178,0.289-3.944,0.646-3.944c0.357,0,0.646,1.766,0.646,3.944
							c0,2.178-0.289,3.944-0.646,3.944C819.484,51.803,819.194,50.037,819.194,47.859z"/>
						<path style="fill:#159356;" d="M812.785,40.008c2.178,0,3.944,0.289,3.944,0.646c0,0.357-1.766,0.646-3.944,0.646
							c-2.178,0-3.943-0.289-3.943-0.646C808.841,40.298,810.607,40.008,812.785,40.008z"/>
					</g>
					<g>
						<path style="fill:#159356;" d="M825.467,36.197c-1.54,1.54-2.993,2.584-3.245,2.332c-0.252-0.252,0.792-1.706,2.332-3.245
							c1.54-1.54,2.993-2.584,3.245-2.332C828.051,33.204,827.007,34.657,825.467,36.197z"/>
						<path style="fill:#159356;" d="M824.447,46.281c-1.54-1.54-2.584-2.993-2.332-3.245c0.252-0.252,1.705,0.792,3.245,2.332
							c1.54,1.54,2.584,2.993,2.332,3.245C827.44,48.865,825.987,47.821,824.447,46.281z"/>
						<path style="fill:#159356;" d="M814.364,45.261c1.54-1.54,2.993-2.584,3.245-2.332c0.252,0.252-0.792,1.705-2.332,3.245
							c-1.54,1.54-2.993,2.584-3.245,2.332C811.78,48.254,812.824,46.801,814.364,45.261z"/>
						<path style="fill:#159356;" d="M815.383,35.178c1.54,1.54,2.584,2.993,2.331,3.245c-0.252,0.252-1.705-0.792-3.245-2.332
							c-1.54-1.54-2.584-2.993-2.332-3.245C812.39,32.594,813.843,33.638,815.383,35.178z"/>
					</g>
					<path style="fill:#159356;" d="M821.141,40.729c0,0.677-0.549,1.226-1.226,1.226c-0.677,0-1.226-0.549-1.226-1.226
						c0-0.677,0.549-1.226,1.226-1.226C820.592,39.503,821.141,40.052,821.141,40.729z"/>
				</g>
			</g>
			<g>
				<g>
					<g>
						<ellipse style="fill:#159356;" cx="575.97" cy="317.836" rx="0.646" ry="3.944"/>
						<ellipse style="fill:#159356;" cx="583.025" cy="325.041" rx="3.943" ry="0.646"/>
						<path style="fill:#159356;" d="M575.174,332.096c0-2.178,0.289-3.944,0.646-3.944c0.357,0,0.646,1.766,0.646,3.944
							s-0.289,3.944-0.646,3.944C575.463,336.04,575.174,334.275,575.174,332.096z"/>
						<path style="fill:#159356;" d="M568.765,324.245c2.178,0,3.944,0.289,3.944,0.646c0,0.357-1.766,0.646-3.944,0.646
							c-2.178,0-3.944-0.289-3.944-0.646C564.821,324.535,566.587,324.245,568.765,324.245z"/>
					</g>
					<g>
						<path style="fill:#159356;" d="M581.447,320.434c-1.54,1.54-2.993,2.584-3.245,2.332c-0.253-0.252,0.792-1.705,2.332-3.246
							c1.54-1.54,2.993-2.584,3.245-2.331C584.031,317.441,582.987,318.894,581.447,320.434z"/>
						<path style="fill:#159356;" d="M580.427,330.518c-1.54-1.54-2.584-2.993-2.332-3.246c0.252-0.252,1.706,0.792,3.246,2.332
							c1.54,1.54,2.584,2.993,2.332,3.245C583.42,333.102,581.967,332.058,580.427,330.518z"/>
						<path style="fill:#159356;" d="M570.343,329.498c1.54-1.54,2.993-2.584,3.245-2.332c0.252,0.252-0.792,1.705-2.331,3.246
							c-1.54,1.54-2.993,2.584-3.245,2.332C567.759,332.491,568.803,331.038,570.343,329.498z"/>
						<path style="fill:#159356;" d="M571.363,319.415c1.54,1.54,2.584,2.993,2.332,3.245c-0.253,0.252-1.706-0.792-3.245-2.332
							c-1.54-1.54-2.584-2.993-2.331-3.245C568.37,316.831,569.823,317.875,571.363,319.415z"/>
					</g>
					<path style="fill:#159356;" d="M577.121,324.966c0,0.677-0.549,1.226-1.226,1.226c-0.677,0-1.226-0.549-1.226-1.226
						c0-0.677,0.549-1.226,1.226-1.226C576.572,323.74,577.121,324.289,577.121,324.966z"/>
				</g>
			</g>
		</g>
		<g style="opacity:0.4;">
			<path style="fill:#159356;" d="M862.611,122.361c-0.025-0.009-2.503-1.005-3.236-5.771c-0.022-0.143-0.145-0.248-0.289-0.248
				c-0.144,0-0.267,0.105-0.289,0.248c-0.733,4.767-3.211,5.762-3.235,5.771c-0.115,0.043-0.191,0.152-0.191,0.275
				c0,0.123,0.076,0.232,0.191,0.274c0.025,0.009,2.497,0.971,3.235,5.771c0.022,0.143,0.145,0.248,0.289,0.248
				c0.144,0,0.267-0.105,0.289-0.248c0.733-4.767,3.211-5.762,3.235-5.771c0.115-0.042,0.19-0.151,0.191-0.273
				C862.8,122.514,862.725,122.405,862.611,122.361z"/>
			<path style="fill:#159356;" d="M617.039,249.408c-0.025-0.009-2.503-1.005-3.236-5.771c-0.022-0.143-0.145-0.248-0.289-0.248
				c-0.144,0-0.267,0.105-0.289,0.248c-0.733,4.767-3.211,5.762-3.235,5.771c-0.115,0.042-0.191,0.152-0.191,0.275
				c0,0.123,0.076,0.232,0.191,0.275c0.025,0.009,2.497,0.971,3.235,5.771c0.022,0.143,0.145,0.248,0.289,0.248
				c0.144,0,0.267-0.105,0.289-0.248c0.733-4.767,3.211-5.762,3.235-5.771c0.115-0.042,0.19-0.151,0.191-0.273
				C617.229,249.561,617.153,249.452,617.039,249.408z"/>
			<path style="fill:#159356;" d="M1005.867,215.623c-0.033-0.013-3.313-1.33-4.283-7.637c-0.029-0.189-0.191-0.328-0.383-0.328
				c-0.191,0-0.354,0.14-0.383,0.328c-0.97,6.307-4.25,7.624-4.281,7.636c-0.152,0.056-0.253,0.201-0.253,0.363
				c0,0.162,0.101,0.307,0.253,0.363c0.033,0.012,3.304,1.285,4.281,7.636c0.029,0.189,0.192,0.328,0.383,0.328
				c0.191,0,0.354-0.139,0.383-0.328c0.97-6.308,4.25-7.624,4.281-7.636c0.151-0.056,0.252-0.2,0.252-0.362
				C1006.118,215.826,1006.018,215.68,1005.867,215.623z"/>
			<path style="fill:#159356;" d="M718.284,90.229c-0.033-0.013-3.313-1.33-4.283-7.637c-0.029-0.189-0.191-0.328-0.382-0.328
				s-0.354,0.139-0.383,0.328c-0.97,6.308-4.25,7.624-4.281,7.636c-0.152,0.056-0.253,0.201-0.253,0.363
				c0,0.162,0.101,0.307,0.253,0.363c0.033,0.012,3.304,1.285,4.281,7.636c0.029,0.189,0.191,0.328,0.383,0.328
				s0.354-0.139,0.382-0.328c0.97-6.308,4.25-7.625,4.281-7.636c0.151-0.056,0.251-0.2,0.252-0.362
				C718.535,90.432,718.435,90.287,718.284,90.229z"/>
		</g>
	</g>
	<g>
		<g>
			<g>
				<path style="opacity:0.15;fill:#606060;" d="M0,0.13v167.391c29.099,0.604,108.314-4.534,176.035-70.56
					c17.116-16.689,33.592-30.207,48.793-40.673l72.79,70.163c0,0,0.041-0.088,0.115-0.25
					c12.282,14.429,52.28,11.137,145.246-18.107C566.991,69.069,675.771,20.14,718.386,0.13H0z"/>
				<g>
					<path style="fill:#064635;" d="M280.956,119.379L182.213,24.2c0,0,99.667-17.69,119.667-5.345S280.956,119.379,280.956,119.379
						z"/>
					<path style="fill:#117C48;" d="M678.17,0.13c-40.23,18.89-142.92,65.08-259.99,101.92c-151,47.5-154,22.49-130.33-35.51
						c6.85-16.78,6.25-28.28,0-34.26c-0.06-0.07-0.12-0.13-0.18-0.18l-0.15-0.14c-15.72-14.15-64.88,4.53-121.34,59.58
						C102.25,153.87,27.47,158.72,0,158.15V0.13H678.17z"/>
				</g>
			</g>
			<path style="fill:#159356;" d="M287.22,31.96c-15.72-14.15-64.88,4.53-121.34,59.58C101.95,153.87,27.17,158.72-0.3,158.15V0.13
				h252.33L287.22,31.96z"/>
		</g>
		<g>
			<path style="fill:#064635;" d="M601.678,410.821l53.58,77.567c0,0-67.229,15.333-77.895-22
				C566.695,429.055,601.678,410.821,601.678,410.821z"/>
			<path style="fill:#117C48;" d="M1040.002,454.905v45.09h-752.63c0,0,234.44-108.08,298.99-98.11c38.03,5.87-5.52,40.14,5.6,58.81
				c0.3,0.52,0.65,1.02,1.05,1.51c9.53,11.9,45.27,16.25,148.12-0.15C886.562,438.865,983.082,444.965,1040.002,454.905z"/>
			<path style="fill:#159356;" d="M1040.002,454.905v45.09h-420.8l-26.19-37.79c9.53,11.9,45.27,16.25,148.12-0.15
				C886.562,438.865,983.082,444.965,1040.002,454.905z"/>
		</g>
	</g>
</g>
<g id="TEXTS">
	<g>
		<polygon style="fill:none;" points="364.696,350.373 44.158,350.373 44.256,291.638 364.696,291.638 		"/>
		<text transform="matrix(1 0 0 1 44.2549 299.8005)"><tspan x="0" y="0" style="fill:#064635; font-family:'Montserrat-Regular'; font-size:11px;">Lorem ipsum dolor sit amet, consectetur adipiscing elit. </tspan><tspan x="-0.029" y="17" style="fill:#064635; font-family:'Montserrat-Regular'; font-size:11px;">Integer quam lorem, hendrerit et odio sed, hendrerit </tspan><tspan x="-0.057" y="34" style="fill:#064635; font-family:'Montserrat-Regular'; font-size:11px;">vulputate quam.</tspan></text>
		<g>
			<text transform="matrix(1 0 0 1 65.7036 385.1647)" style="fill:#FFFFFF; font-family:'Montserrat-ExtraBold'; font-size:12px;">Read More</text>
		</g>
		<g>
			<text transform="matrix(1 0 0 1 44.1581 455.0805)" style="fill:#064635; font-family:'Montserrat-Medium'; font-size:12px;">www.yourwebsite.com</text>
		</g>
		
			<text transform="matrix(1.0178 0 0 1 43.5985 228.5693)" style="fill:#064635; font-family:'BerkshireSwash-Regular'; font-size:56.3435px;">Saudi Arabia</text>
		
			<text transform="matrix(1.0178 0 0 1 42.3417 261.3661)" style="fill:#F49638; font-family:'Montserrat-Bold'; font-size:20.2905px; letter-spacing:3.93;">NATIONAL DAY</text>
	</g>
</g>
</svg>
